<?xml version="1.0" encoding="utf-8"?>
<!-- Generator: Adobe Illustrator 25.3.1, SVG Export Plug-In . SVG Version: 6.00 Build 0)  -->
<svg version="1.1" id="Ebene_1" xmlns="http://www.w3.org/2000/svg" xmlns:xlink="http://www.w3.org/1999/xlink" x="0px" y="0px"
	 viewBox="0 0 774.9 348" style="enable-background:new 0 0 774.9 348;" xml:space="preserve">
<style type="text/css">
	.st0{fill:#FFFFFF;}
</style>
<path class="st0" d="M639.6,189l18.9-107.2h-24c-4.8,0-9.2,3.5-10,8.4L602,217.5l60.7,0c4.9,0,9.2-3.5,10-8.4l3.5-20.1H639.6z"/>
<path class="st0" d="M484,217.5l-32.1-71.4l49.3-64.3h-36.6l-44.9,61.7l10.9-61.7h-24c-4.8,0-9.2,3.5-10,8.4L374,217.5l24,0
	c4.8,0,9.2-3.5,10-8.4l10.5-59.4l26.2,61.7c1.6,3.9,5.4,6.2,9.4,6.2H484z"/>
<path class="st0" d="M369.4,81.7l-23.9,135.8h-32.6L278.4,136l-12.9,73c-0.9,4.9-5.2,8.4-10,8.4h-24l23.9-135.8h32.6l34.5,81.5
	l12.9-73c0.9-4.9,5.2-8.4,10-8.4H369.4z"/>
<path class="st0" d="M194.4,217.5c4.9,0,9.2-3.5,10-8.4l22.5-127.3l-24,0c-4.9,0-9.2,3.5-10,8.4l-22.5,127.3H194.4z"/>
<path class="st0" d="M596.5,110.2l5-28.5h-72.8c-4.8,0-9.2,3.5-10,8.4l-22.5,127.3h72.9c4.8,0,9.1-3.5,10-8.4l3.5-20.1h-48.9
	l5.5-31.2H580l4.3-24.4h-40.7l4.1-23.1H596.5z"/>
<path class="st0" d="M178,81.7l-45.3,129c-1.5,4.2-5.5,6.8-9.7,6.8H97.7l-14.4-81.7l-28.7,81.7H22L0.2,93.7
	c-1-5.5,2.7-10.8,8.3-11.8c0.6-0.1,1.2-0.2,1.8-0.2l20.4,0L45,163.4l28.7-81.7h28.5l14.4,81.7l28.7-81.7H178z"/>
<path class="st0" d="M744.2,106.8c10.1,0,17.1,1.4,25.9,4l4.8-27.2c-8.7-2.6-18.1-3.9-28-3.9c-21.6,0-44.3,13.6-48.7,35
	c-5,24.6,6.2,38.2,27.3,50.4c6.9,4,14.2,9.5,11.9,17.2c-2,6.9-8.4,10-16.5,10c-12.6,0.1-21.2-1.8-32.2-4.4l-3.1,17.7
	c-1,5.5,2.7,10.8,8.2,11.8c9,1.6,18.3,2.1,28,2.1c24.6,0,45-12.7,49.6-37.2c5.2-28-11.6-39.1-33.9-51.8c-7.6-4.3-8.5-10.9-6.4-15.4
	C733.8,109.1,737.7,106.8,744.2,106.8"/>
<path class="st0" d="M295.7,54.9h42.8l159.9-47c2.1-0.8,3.2-3.2,2.3-5.3C500.2,0.9,498.6,0,497,0h-16.2L332.9,41.7L315.3,0h-30.4
	c-1.1,0-2.1,0.2-3.2,0.6c-4.2,1.8-6.1,6.6-4.4,10.8L295.7,54.9z"/>
<path class="st0" d="M75.9,317.1c4.7,3.7,9.1,5.4,14.3,5.4c5.6,0,9.2-2.6,9.2-6.6c0-2.1-0.9-3.9-2.8-5.5c-1-0.9-3.1-2.1-6.6-3.8
	c-5.3-2.6-8-4.2-10-6.4c-2.3-2.4-3.6-5.7-3.6-9.2c0-8.8,7.4-14.8,18.4-14.8c4.7,0,8.7,0.9,13.5,3.1v9.1c-4.3-3.1-8.2-4.6-12.9-4.6
	c-5.7,0-9.5,2.6-9.5,6.2c0,2.2,0.9,3.8,3.2,5.6c1,0.7,2.6,1.5,6.4,3.4c5.2,2.5,7.7,4.2,10,6.4c2.5,2.6,3.8,6.1,3.8,10
	c0,9.1-7.5,15.1-18.9,15.1c-5.1,0-9.6-1-14.5-3.4V317.1z"/>
<path class="st0" d="M141.4,306.9c-0.4-5-2.9-7.5-7.2-7.5c-4.4,0-7.4,2.8-8.3,7.5H141.4z M125.4,313c0.4,6.7,4,10.1,11,10.1
	c4.4,0,8.1-1.2,11.6-3.9v7.3c-4.3,2.6-8,3.6-12.9,3.6c-11.4,0-18.1-6.8-18.1-18.3c0-11.3,6.9-18.9,17.4-18.9
	c6.4,0,11.5,3.1,13.8,8.3c1.2,2.9,1.7,5.7,1.7,11.7v0.2H125.4z"/>
<path class="st0" d="M158.5,296.1c4.8-2,10.3-3.1,15.3-3.1c2.6,0,4.6,0.3,6.9,1v7.3c-2-0.6-3.8-0.8-6.1-0.8c-2.6,0-5,0.4-7.4,1.2
	v27.6h-8.7V296.1z"/>
<path class="st0" d="M193.8,293.7l0.2,0.9c1.4,6.1,4.4,15.9,7,22.9l0.5,1.2l0.5,4.8l0.7-4.8c3.1-7.2,6.7-18,8.6-25.1h9l-0.4,1.5
	c-1.9,6.2-3.7,11.2-6.1,17c-2.1,5.3-4.7,11-7.1,15.8l-0.6,1.2h-8.8l-0.6-1.2c-5.2-11.6-9.1-22.8-12.1-34.3H193.8z"/>
<path class="st0" d="M226.3,293.7h8.7v35.6h-8.7V293.7z M226.2,277.7h9.2v9.3h-9.2V277.7z"/>
<g>
	<path class="st0" d="M272.9,302.5c-2.8-1.8-5.1-2.5-8.3-2.5c-7.2,0-11.8,4.3-11.8,11.3s4.5,11.2,11.7,11.2c3.3,0,5.6-0.6,8.8-2.3
		v7.4c-3.5,1.8-6.5,2.5-10.6,2.5c-11.5,0-18.7-7-18.7-18.1c0-11.3,7.9-19,19.4-19c3.5,0,6.1,0.6,9.4,2V302.5z"/>
	<path class="st0" d="M302.3,306.9c-0.4-5-2.8-7.5-7.2-7.5c-4.4,0-7.4,2.8-8.3,7.5H302.3z M286.2,313c0.4,6.7,3.9,10.1,11,10.1
		c4.4,0,8.1-1.2,11.6-3.9v7.3c-4.3,2.6-8,3.6-12.9,3.6c-11.4,0-18.1-6.8-18.1-18.3c0-11.3,6.9-18.9,17.4-18.9
		c6.4,0,11.5,3.1,13.8,8.3c1.2,2.9,1.7,5.7,1.7,11.7v0.2H286.2z"/>
	<path class="st0" d="M339.8,300.4c-0.4-0.1-0.6-0.1-0.8-0.1c-8.5,0-13.1,4.3-13.1,12.1c0,6.5,3.6,10.4,9.4,10.4
		c1.8,0,3.4-0.3,5.3-1v-1l-0.1-3.6c0-1.2,0-2.9-0.1-5.2l-0.1-6.2l-0.1-4.4v-1H339.8z M317.9,337.1c4.1,2.3,7.7,3.4,11.8,3.4
		c7.8,0,11-3.5,11-12c0-0.1,0-0.2-0.1-0.3c-2.3,1-4.5,1.5-7.2,1.5c-9.9,0-16.3-6.7-16.3-16.9c0-12.3,8.9-19.6,24.2-19.6
		c4.1,0,8.3,0.4,13.9,1.4v6.9c-2.9-0.5-4-0.7-6.4-1v1.2l0.1,5.2l0.1,6.6c0.1,3.7,0.1,6.7,0.1,8.8c0,9.6-0.7,13.9-3,17.5
		c-3.1,5.1-8.9,7.9-16.3,7.9c-4,0-8.2-0.9-11.9-2.4V337.1z"/>
	<path class="st0" d="M383.7,306.9c-0.4-5-2.8-7.5-7.2-7.5c-4.4,0-7.5,2.8-8.3,7.5H383.7z M367.6,313c0.4,6.7,3.9,10.1,11,10.1
		c4.4,0,8.1-1.2,11.6-3.9v7.3c-4.3,2.6-8,3.6-12.9,3.6c-11.4,0-18.1-6.8-18.1-18.3c0-11.3,6.9-18.9,17.4-18.9
		c6.4,0,11.5,3.1,13.8,8.3c1.2,2.9,1.7,5.7,1.7,11.7v0.2H367.6z"/>
	<path class="st0" d="M399.2,320.2c3.7,2.3,6.4,3.1,9.8,3.1c3.7,0,5.8-1.4,5.8-3.5c0-1.6-1.1-2.9-3.6-3.9l-3.5-1.7
		c-6.1-2.8-8.6-5.9-8.6-10.5c0-6.4,5.3-10.6,13.6-10.6c3.4,0,5.9,0.5,9.2,2v7.4c-3.2-2-5.5-2.8-8.6-2.8c-3.6,0-5.8,1.3-5.8,3.4
		c0,1.8,0.7,2.3,6.1,5c4.1,2.1,5.7,3.1,7.2,4.8c1.5,1.7,2.3,4,2.3,6.5c0,6.8-5.3,11-14,11c-3.7,0-6.7-0.7-10-2.2V320.2z"/>
	<path class="st0" d="M454.4,306.9c-0.4-5-2.8-7.5-7.2-7.5c-4.4,0-7.5,2.8-8.3,7.5H454.4z M438.3,313c0.4,6.7,3.9,10.1,11,10.1
		c4.4,0,8.1-1.2,11.6-3.9v7.3c-4.3,2.6-8,3.6-12.9,3.6c-11.4,0-18.1-6.8-18.1-18.3c0-11.3,7-18.9,17.4-18.9c6.4,0,11.5,3.1,13.8,8.3
		c1.3,2.9,1.7,5.7,1.7,11.7v0.2H438.3z"/>
</g>
<rect x="471.7" y="274.5" class="st0" width="8.7" height="54.8"/>
<rect x="491.8" y="274.5" class="st0" width="8.7" height="54.8"/>
<g>
	<path class="st0" d="M510,320.2c3.7,2.3,6.4,3.1,9.8,3.1c3.6,0,5.8-1.4,5.8-3.5c0-1.6-1.1-2.9-3.6-3.9l-3.5-1.7
		c-6.1-2.8-8.6-5.9-8.6-10.5c0-6.4,5.3-10.6,13.6-10.6c3.4,0,5.9,0.5,9.2,2v7.4c-3.2-2-5.5-2.8-8.6-2.8c-3.6,0-5.8,1.3-5.8,3.4
		c0,1.8,0.7,2.3,6.1,5c4.1,2.1,5.7,3.1,7.2,4.8c1.5,1.7,2.3,4,2.3,6.5c0,6.8-5.3,11-14,11c-3.6,0-6.6-0.7-10-2.2V320.2z"/>
	<path class="st0" d="M569.5,302.5c-2.8-1.8-5.1-2.5-8.3-2.5c-7.2,0-11.8,4.3-11.8,11.3s4.5,11.2,11.7,11.2c3.3,0,5.6-0.6,8.8-2.3
		v7.4c-3.5,1.8-6.5,2.5-10.6,2.5c-11.5,0-18.7-7-18.7-18.1c0-11.3,7.9-19,19.4-19c3.5,0,6.1,0.6,9.4,2V302.5z"/>
	<path class="st0" d="M577.4,274.5h8.7v20.2c3.2-1.2,5.8-1.6,8.9-1.6c4.7,0,8.4,1.2,10.5,3.4c2,2,2.7,4.7,2.7,9.4v23.5h-8.7v-22.1
		c0-5-1.9-7.1-6.7-7.1c-2.2,0-4.3,0.5-6.7,1.5v27.7h-8.7V274.5z"/>
	<path class="st0" d="M636.4,313.1c-8.4,0.7-11.3,2.3-11.3,6.1c0,2.8,1.5,4,4.8,4c1.9,0,4.1-0.2,6.6-0.7V313.1z M619.3,296.6
		c4.7-2.6,8.9-3.7,13.7-3.7c5.2,0,8.6,1.5,10.1,4.5c0.9,1.7,1.2,3.8,1.2,8.5v22.6c-6.1,0.9-11,1.3-15.1,1.3
		c-8.3,0-12.1-3.1-12.1-10.1c0-4.8,2.1-8.3,6.1-10.2c3.1-1.5,6.1-2.2,12.2-2.8l0.7-0.1v-1.3c0-3.9-1.3-5.3-5.1-5.3
		c-3.9,0-7.5,1.3-11.8,4.1V296.6z"/>
	<path class="st0" d="M651.4,294.5h5.6v-1.2c0-7.8,1.3-12.1,4.8-15.3c2.8-2.5,6.6-3.9,11-3.9c1.3,0,2.1,0.1,3.6,0.4v6.9
		c-1.2-0.2-1.8-0.3-2.7-0.3c-2.8,0-5,1-6.3,2.7c-1.4,1.8-1.8,4.2-1.8,9.4v1.2h8.8v6.5h-8.8v28.3H657V301h-5.6V294.5z"/>
	<path class="st0" d="M676.8,294.6h6v-9.5h8.3v9.5h7.9v6.5h-7.9v15.6c0,5,1,6.3,4.7,6.3c0.8,0,1.3-0.1,2.4-0.4v6.5
		c-1.8,0.4-3.4,0.5-5.1,0.5c-4.4,0-7.4-1.1-9.1-3.3c-1.4-1.8-1.7-3.2-1.7-8.6v-16.6h-5.6V294.6z"/>
</g>
</svg>
